<svg width="75" height="20" fill="none" xmlns="http://www.w3.org/2000/svg"><path d="M5.717 0a5.742 5.742 0 0 0-5.29 3.576C.14 4.276-.004 5.024 0 5.78v1.91h4.645V4.921a.99.99 0 0 1 .988-.989h.168a.988.988 0 0 1 .988.99v7.413a4.642 4.642 0 0 0 4.292-2.869 4.65 4.65 0 0 0 .353-1.779V5.78c.004-1.53-.598-2.999-1.674-4.086A5.67 5.67 0 0 0 5.717 0Z" fill="#999"></path><path d="M5.801 16.09h-.167a.988.988 0 0 1-.989-.989V7.687a4.642 4.642 0 0 0-4.291 2.87A4.65 4.65 0 0 0 0 12.336v1.882a5.725 5.725 0 0 0 3.516 5.339 5.714 5.714 0 0 0 7.5-3.131 5.725 5.725 0 0 0 .418-2.208v-1.882H6.79V15.1a.99.99 0 0 1-.988.99ZM19.374 5.865h-1.628v8.265h4.779v-1.558h-3.15V5.865ZM27.74 8.924a2.317 2.317 0 0 0-1.924-.862 2.67 2.67 0 0 0-2.023.903 3.326 3.326 0 0 0 0 4.428 2.673 2.673 0 0 0 2.023.903c.826 0 1.467-.287 1.924-.862v.697h1.522V8.227h-1.523v.697Zm-.466 3.453a1.59 1.59 0 0 1-1.174.466 1.572 1.572 0 0 1-1.169-.466 1.79 1.79 0 0 1 0-2.397 1.573 1.573 0 0 1 1.169-.466 1.593 1.593 0 0 1 1.174.466 1.775 1.775 0 0 1 0 2.397ZM33.183 12.194l-1.539-3.967h-1.663l2.417 5.714c-.1.341-.3.645-.572.874a1.53 1.53 0 0 1-.974.26v1.417a2.8 2.8 0 0 0 1.892-.514c.506-.383.913-.995 1.22-1.838l2.15-5.913h-1.627l-1.304 3.967ZM39.408 8.062a3 3 0 0 0-2.242.892 3.264 3.264 0 0 0 .012 4.457c.59.59 1.373.885 2.348.886 1.132 0 1.99-.421 2.572-1.264l-1.227-.708a1.557 1.557 0 0 1-1.322.59c-.904 0-1.459-.37-1.663-1.11h4.448c.038-.206.058-.416.059-.626a3.119 3.119 0 0 0-.844-2.22 2.813 2.813 0 0 0-2.141-.897Zm-1.546 2.563c.067-.347.256-.659.53-.88.294-.217.652-.327 1.015-.313.333-.004.658.1.927.295.286.22.478.541.537.897h-3.009ZM44.977 9.243V8.227h-1.522v5.904h1.522v-2.822c0-.567.183-.972.549-1.216.366-.244.809-.345 1.245-.284v-1.7a2.14 2.14 0 0 0-1.092.284c-.328.19-.577.492-.702.85ZM54.192 7.143V5.865H48.78v1.559h3.35l-3.438 5.404v1.302h5.567v-1.558h-3.504l3.438-5.429ZM57.851 8.062a3 3 0 0 0-2.241.892 3.264 3.264 0 0 0 .011 4.457c.59.59 1.373.885 2.348.886 1.133 0 1.99-.421 2.572-1.264l-1.227-.708a1.558 1.558 0 0 1-1.321.59c-.905 0-1.46-.37-1.664-1.11h4.449c.038-.206.057-.416.058-.626a3.118 3.118 0 0 0-.843-2.22 2.812 2.812 0 0 0-2.142-.897Zm-1.545 2.563c.067-.347.255-.66.53-.88a1.6 1.6 0 0 1 1.015-.313c.333-.004.658.1.927.295.286.22.477.541.536.897h-3.008ZM63.42 9.243V8.227h-1.522v5.904h1.523v-2.822c0-.567.182-.972.548-1.216.366-.244.81-.345 1.245-.284v-1.7a2.14 2.14 0 0 0-1.091.284c-.328.19-.577.492-.702.85ZM68.683 8.063a3.091 3.091 0 0 0-3.004 2.517 3.096 3.096 0 0 0 1.873 3.444 3.091 3.091 0 0 0 4.242-3.177 3.095 3.095 0 0 0-.892-1.88 3.008 3.008 0 0 0-2.219-.904Zm1.145 4.286a1.553 1.553 0 0 1-1.145.46 1.533 1.533 0 0 1-1.139-.46 1.731 1.731 0 0 1 0-2.338 1.535 1.535 0 0 1 1.14-.46 1.553 1.553 0 0 1 1.144.46 1.714 1.714 0 0 1 0 2.338ZM74.999 12.313h-1.852v1.818h1.852v-1.819Z" fill="#999"></path></svg>