<svg xmlns="http://www.w3.org/2000/svg" viewBox="0 0 788 788"><path d="M404,864c217.6,0,394-176.4,394-394S621.6,76,404,76,10,252.4,10,470,186.4,864,404,864ZM289.16,574.72q-35.19,0-57.66-16.56-22.18-16.86-22.18-47.91a105.93,105.93,0,0,1,1.48-16q3.84-21.28,10.94-51.16,20.1-81.31,103.8-81.32,22.77,0,40.8,7.69A62,62,0,0,1,394.73,392q10.35,14.77,10.35,35.48a104.48,104.48,0,0,1-1.48,15.67q-4.43,26.33-10.64,51.16-10.35,40.51-35.78,60.63-25.44,19.8-68,19.81Zm4.14-42.58q16.56,0,28.1-9.76,11.82-9.76,16.85-29.87,6.81-27.79,10.35-48.5a67.68,67.68,0,0,0,1.18-12.71q0-26.91-28.09-26.92-16.56,0-28.39,9.76-11.54,9.76-16.56,29.87-5.33,19.82-10.64,48.5a63.06,63.06,0,0,0-1.19,12.42q0,27.21,28.39,27.21Zm120.33,37.55a6.27,6.27,0,0,0,5,2.07h40.22a9,9,0,0,0,5.62-2.07,8.45,8.45,0,0,0,3.25-5.32l13.6-64.76h39.92q38.75,0,60.92-16.27,22.48-16.26,29.87-50.27a71,71,0,0,0,1.77-15.38q0-25.72-20.1-39.33-19.82-13.61-52.64-13.6H462.43a9,9,0,0,0-5.62,2.07,8.41,8.41,0,0,0-3.25,5.32L412.75,564.37a7.07,7.07,0,0,0,.88,5.32ZM544.93,452a35.25,35.25,0,0,1-21.58,6.8h-34l11.23-52.94h35.49q12.12,0,17.15,4.74,5,4.42,5,13a52,52,0,0,1-.89,8.87q-3,12.72-12.42,19.52Z" transform="translate(-10 -76)" style="fill-rule:evenodd"/></svg>